<svg xmlns="http://www.w3.org/2000/svg" width="256" height="256" viewBox="0 0 100 100"><rect width="100" height="100" rx="0" fill="#000000" style="--darkreader-inline-fill: #000000;" data-darkreader-inline-fill=""></rect><path fill="#fff" style="--darkreader-inline-fill: #e8e6e3;" data-darkreader-inline-fill="" d="M32.81 45.80L32.81 58.82Q32.81 59.90 32.18 60.62Q31.55 61.34 30.29 62.00L30.29 62.00Q28.79 62.72 26.15 63.26Q23.51 63.80 20.81 63.80L20.81 63.80Q16.61 63.80 13.13 62.66Q9.65 61.52 7.13 59.18Q4.61 56.84 3.23 53.27Q1.85 49.70 1.85 44.84L1.85 44.84Q1.85 40.04 3.29 36.44Q4.73 32.84 7.22 30.47Q9.71 28.10 13.01 26.93Q16.31 25.76 20.03 25.76L20.03 25.76Q22.55 25.76 24.68 26.18Q26.81 26.60 28.31 27.29Q29.81 27.98 30.65 28.82Q31.49 29.66 31.49 30.50L31.49 30.50Q31.49 31.34 31.01 31.94Q30.53 32.54 29.87 32.84L29.87 32.84Q28.25 31.76 26.03 30.83Q23.81 29.90 20.33 29.90L20.33 29.90Q17.45 29.90 14.99 30.86Q12.53 31.82 10.73 33.68Q8.93 35.54 7.91 38.36Q6.89 41.18 6.89 44.84L6.89 44.84Q6.89 48.74 7.94 51.53Q8.99 54.32 10.88 56.12Q12.77 57.92 15.32 58.79Q17.87 59.66 20.87 59.66L20.87 59.66Q23.03 59.66 24.95 59.30Q26.87 58.94 27.95 58.40L27.95 58.40L27.95 47.36L18.89 47.36Q18.71 47.06 18.53 46.55Q18.35 46.04 18.35 45.44L18.35 45.44Q18.35 44.42 18.83 43.85Q19.31 43.28 20.21 43.28L20.21 43.28L30.23 43.28Q31.31 43.28 32.06 43.97Q32.81 44.66 32.81 45.80L32.81 45.80ZM53.27 63.80L53.27 63.80Q51.17 63.80 49.31 63.32Q47.45 62.84 46.25 62.18L46.25 62.18L46.25 73.82Q45.95 73.94 45.35 74.09Q44.75 74.24 44.03 74.24L44.03 74.24Q41.45 74.24 41.45 72.02L41.45 72.02L41.45 40.34Q41.45 39.14 41.87 38.42Q42.29 37.70 43.61 36.92L43.61 36.92Q45.23 36.02 47.48 35.27Q49.73 34.52 52.61 34.52L52.61 34.52Q55.55 34.52 58.16 35.36Q60.77 36.20 62.66 37.97Q64.55 39.74 65.66 42.50Q66.77 45.26 66.77 49.10L66.77 49.10Q66.77 52.82 65.78 55.58Q64.79 58.34 62.99 60.17Q61.19 62.00 58.70 62.90Q56.21 63.80 53.27 63.80ZM52.61 59.84L52.61 59.84Q56.81 59.84 59.36 57.29Q61.91 54.74 61.91 49.10L61.91 49.10Q61.91 46.16 61.16 44.12Q60.41 42.08 59.12 40.82Q57.83 39.56 56.15 39.02Q54.47 38.48 52.61 38.48L52.61 38.48Q50.45 38.48 48.95 39.02Q47.45 39.56 46.25 40.22L46.25 40.22L46.25 57.92Q47.39 58.76 48.95 59.30Q50.51 59.84 52.61 59.84ZM77.69 26.54L97.61 26.54Q97.79 26.84 97.97 27.35Q98.15 27.86 98.15 28.46L98.15 28.46Q98.15 29.48 97.67 30.08Q97.19 30.68 96.29 30.68L96.29 30.68L79.97 30.68L79.97 43.16L95.51 43.16Q95.69 43.46 95.87 43.97Q96.05 44.48 96.05 45.08L96.05 45.08Q96.05 46.10 95.57 46.70Q95.09 47.30 94.19 47.30L94.19 47.30L79.97 47.30L79.97 62.96Q79.67 63.08 79.04 63.20Q78.41 63.32 77.75 63.32L77.75 63.32Q75.05 63.32 75.05 61.16L75.05 61.16L75.05 29.18Q75.05 27.98 75.77 27.26Q76.49 26.54 77.69 26.54L77.69 26.54Z"></path></svg>